<?xml version="1.0" encoding="UTF-8" standalone="no"?>
<!-- Created with Inkscape (http://www.inkscape.org/) -->

<svg
   width="512"
   height="512"
   viewBox="0 0 135.46666 135.46667"
   version="1.1"
   id="svg1"
   inkscape:version="1.3.2 (091e20e, 2023-11-25, custom)"
   sodipodi:docname="app-icon.svg"
   inkscape:export-filename="icon_512x512.png"
   inkscape:export-xdpi="96"
   inkscape:export-ydpi="96"
   xml:space="preserve"
   xmlns:inkscape="http://www.inkscape.org/namespaces/inkscape"
   xmlns:sodipodi="http://sodipodi.sourceforge.net/DTD/sodipodi-0.dtd"
   xmlns:xlink="http://www.w3.org/1999/xlink"
   xmlns="http://www.w3.org/2000/svg"
   xmlns:svg="http://www.w3.org/2000/svg"><sodipodi:namedview
     id="namedview1"
     pagecolor="#505050"
     bordercolor="#eeeeee"
     borderopacity="1"
     inkscape:showpageshadow="0"
     inkscape:pageopacity="0"
     inkscape:pagecheckerboard="0"
     inkscape:deskcolor="#d1d1d1"
     inkscape:document-units="px"
     inkscape:zoom="1"
     inkscape:cx="350"
     inkscape:cy="280.5"
     inkscape:current-layer="layer1" /><defs
     id="defs1"><clipPath
       id="clip-0"><path
         style="fill:#ffffff;stroke-width:3px"
         d="M 100,724 V 300 C 100,185.001 170,99.995 300.026,100 L 724,99.995 C 854,100 924,185.001 924,300 v 424 c 0,115.001 -70,199.995 -200,200 H 300.026 C 170,924 100,839.001 100,724 Z"
         id="path2-1" /></clipPath><mask
       maskUnits="userSpaceOnUse"
       id="mask1"><path
         style="fill:#ffffff;fill-opacity:1;stroke:none;stroke-width:0.395716px"
         d="M 13.388391,95.697568 V 39.769756 c 0,-15.168969 9.233363,-26.381704 26.384474,-26.381044 l 55.924367,-6.61e-4 c 17.147668,6.61e-4 26.381038,11.212735 26.381038,26.381705 v 55.927812 c 0,15.169232 -9.23337,26.380382 -26.381038,26.381042 H 39.772865 c -17.151111,0 -26.384474,-11.21181 -26.384474,-26.381042 z"
         id="path2" /></mask></defs><g
     inkscape:label="Layer 1"
     inkscape:groupmode="layer"
     id="layer1"><image
       preserveAspectRatio="none"
       inkscape:svg-dpi="512"
       width="111.125"
       height="111.125"
       xlink:href="../app-icon-base.svg"
       id="image1"
       x="12.170833"
       y="12.170833"
       mask="url(#mask1)"
       style="image-rendering:optimizeQuality" /></g></svg>
